PathFileType	4	(X/Y/Z)	D:\Share\Shared_Data\Ergonomics\Sit To Stand Pertubation\S1\Perturbed_NoHarness.trc
DataRate	CameraRate	NumFrames	NumMarkers	Units	OrigDataRate	OrigDataStartFrame	OrigNumFrames	
100	100	12	18	m	100	9546	191
Frame#	Time	L_ASIS			R_ASIS			R_Pelvis			V_Sacral			L_Pelvis			Clavical			R_Acromium			L_Acromium			Sternum			Torso			R_Thigh_Med			R_Thigh_Lat			R_Thigh			R_Shank_Med			R_Shank_Lat			R_Shank			R_Heel			R_Toe			
		X1	Y1	Z1	X2	Y2	Z2	X3	Y3	Z3	X4	Y4	Z4	X5	Y5	Z5	X6	Y6	Z6	X7	Y7	Z7	X8	Y8	Z8	X9	Y9	Z9	X10	Y10	Z10	X11	Y11	Z11	X12	Y12	Z12	X13	Y13	Z13	X14	Y14	Z14	X15	Y15	Z15	X16	Y16	Z16	X17	Y17	Z17	X18	Y18	Z18	

9546	95.45	0.17859674	0.62074738	-0.10129246	0.15416495	0.61500793	0.10337439	0.075322998	0.65833813	0.13049257	-0.04533567	0.6223526	-0.0024499545	0.085874687	0.65219128	-0.13467249	0.41040085	0.83352399	-0.0062055488	0.41982224	0.94656793	0.12555569	0.34897842	0.94047681	-0.19812593	0.39962952	0.86594934	0.087989899	0.40309039	0.84849097	-0.057042156	0.38376376	0.40548743	0.024749228	0.38800113	0.427508	0.14540691	0.27415619	0.55845709	0.10258752	0.35666574	0.090797058	0.094157578	0.33467566	0.098455536	0.17428456	0.36921951	0.30734839	0.17149814	0.28264301	0.035929501	0.12879483	0.4888703	0.046842175	0.13477191
9547	95.46	0.18367809	0.6225705	-0.1000445	0.1592946	0.61721564	0.10344754	0.080460114	0.66031494	0.13087236	-0.040019661	0.62437708	-0.0023110764	0.090889168	0.65386249	-0.1348602	0.41381909	0.83709332	-0.0063746309	0.42294116	0.95009119	0.12573583	0.35192911	0.94301013	-0.19876265	0.40340924	0.86951373	0.08787738	0.40690378	0.85187769	-0.057464752	0.3879906	0.40470029	0.024078882	0.39265033	0.42681165	0.14483571	0.27992868	0.55887524	0.1023736	0.35710736	0.090613716	0.093843376	0.33527496	0.098521103	0.17404903	0.37230121	0.30696756	0.17096234	0.28271658	0.03544067	0.1282585	0.48891104	0.046614761	0.13472
9548	95.47	0.18864639	0.62473499	-0.098845451	0.1643692	0.61976282	0.10354144	0.085560341	0.66264752	0.13134946	-0.034766087	0.62673627	-0.0021337781	0.095810745	0.65586993	-0.1350437	0.4170199	0.84117114	-0.0065334401	0.42567978	0.95410339	0.1259167	0.35463174	0.94604041	-0.19941064	0.40691333	0.87358472	0.087770325	0.41049088	0.85579071	-0.05789082	0.3920596	0.40393527	0.023421398	0.39713614	0.42612146	0.14426187	0.28563126	0.55940808	0.10216039	0.35749512	0.090443512	0.093543533	0.3358428	0.098587486	0.17382504	0.37526257	0.30658075	0.17044299	0.28278616	0.035012989	0.12778255	0.48894012	0.046412258	0.13466782
9549	95.48	0.19349976	0.62725488	-0.097721664	0.16938364	0.62265161	0.103658	0.090619659	0.66534229	0.13192278	-0.02957888	0.6294422	-0.0019224349	0.1006408	0.6582262	-0.13521877	0.42005051	0.84573853	-0.0066819458	0.42806509	0.95858997	0.12608892	0.35711703	0.94956415	-0.20006052	0.41016354	0.87814789	0.087672348	0.41386874	0.86021667	-0.058312752	0.39594806	0.40320145	0.022779881	0.40143973	0.42544565	0.143687	0.29124713	0.56005939	0.10194703	0.35783121	0.090286835	0.093260162	0.33637802	0.098653778	0.17361465	0.37808966	0.30619156	0.16994247	0.28285144	0.034655491	0.12737623	0.4889581	0.046235691	0.13461658
9550	95.49	0.19823967	0.63013824	-0.096692696	0.17433438	0.62587982	0.10379907	0.095634293	0.66839539	0.13258832	-0.024460016	0.63249683	-0.0016807219	0.10538145	0.6609353	-0.13538164	0.42294769	0.85077551	-0.006819469	0.43012112	0.96353485	0.12624789	0.35940906	0.95357385	-0.20070325	0.41317865	0.88318787	0.087588341	0.41705072	0.8651405	-0.058722736	0.39963708	0.402505	0.022156698	0.40554797	0.42479163	0.14311224	0.2967637	0.56082812	0.10173213	0.35811893	0.0901437	0.09299453	0.33688022	0.098719116	0.17341911	0.38077219	0.30580322	0.16946243	0.28291211	0.034372486	0.12704401	0.48896573	0.046084862	0.13456743
9551	95.5	0.2028707	0.63338666	-0.095770775	0.17921967	0.62944141	0.10396622	0.10060114	0.67179437	0.13333914	-0.019409306	0.63589362	-0.0014114418	0.1100358	0.66399359	-0.13552893	0.42573706	0.85626221	-0.0069445925	0.43186887	0.96892157	0.12639385	0.36152582	0.95805731	-0.20133063	0.41597446	0.8886875	0.087524147	0.42004642	0.87054633	-0.059113102	0.40311197	0.4018497	0.021553637	0.40945325	0.42416663	0.14253842	0.30217264	0.56170819	0.10151359	0.35836224	0.090013847	0.092747162	0.33734982	0.098782661	0.17323903	0.3833035	0.30541861	0.16900403	0.28296817	0.034163803	0.1267858	0.48896399	0.045958435	0.13452127
9552	95.51	0.20740034	0.63699609	-0.094961205	0.18403954	0.63332617	0.10416044	0.10551808	0.67551874	0.13416562	-0.014424365	0.63961884	-0.0011165625	0.11460828	0.6673905	-0.13565773	0.4284325	0.86217853	-0.0070551929	0.43332642	0.97473242	0.12653127	0.36347913	0.96299811	-0.20193552	0.41856439	0.89462805	0.087486038	0.42286237	0.87641675	-0.05947657	0.40636258	0.40123709	0.02097213	0.41315286	0.42357672	0.14196638	0.30746939	0.56268842	0.10128838	0.35856607	0.089896729	0.092517952	0.33778793	0.09884359	0.1730743	0.38568042	0.30504037	0.16856816	0.28301959	0.034025299	0.12659754	0.48895413	0.045854084	0.13447897
9553	95.52	0.21183852	0.64095624	-0.094263115	0.1887959	0.63752081	0.10438185	0.11038415	0.67954236	0.13505569	-0.0095006952	0.64365295	-0.00079745513	0.11910459	0.67110919	-0.13576587	0.43103726	0.86850574	-0.0071485929	0.43450897	0.98094891	0.12666795	0.36527557	0.96837555	-0.20251187	0.42095938	0.90098932	0.087480179	0.42550269	0.88273267	-0.059806664	0.40938379	0.40066721	0.020413597	0.41664838	0.42302728	0.14139735	0.31265268	0.56375293	0.10105269	0.3587356	0.089791679	0.092306366	0.33819598	0.098901199	0.17292436	0.38790277	0.30467062	0.16815579	0.28306671	0.03394976	0.12647204	0.48893756	0.045768742	0.13444102
9554	95.53	0.21619691	0.64525171	-0.093670769	0.19349236	0.64200806	0.10462936	0.11519957	0.68383441	0.1359953	-0.0046319442	0.64797266	-0.0004553034	0.12353185	0.67512799	-0.13585225	0.43354538	0.87522577	-0.0072218189	0.43542944	0.98755151	0.12681373	0.36691711	0.97416498	-0.20305518	0.42316879	0.90774915	0.087512123	0.42796945	0.88947351	-0.060098011	0.41217505	0.40013892	0.019879801	0.4199447	0.42252252	0.14083336	0.31772366	0.56488239	0.10080186	0.35887601	0.089697899	0.092111664	0.33857559	0.098954842	0.17278836	0.38997278	0.30431094	0.16776799	0.28310983	0.033927845	0.12639998	0.48891568	0.045698833	0.13440771
9555	95.54	0.22048853	0.64986249	-0.093175034	0.198134	0.64676831	0.10490035	0.11996571	0.68836182	0.13696884	0.00018975604	0.65255157	-9.1622256e-05	0.12789837	0.67942151	-0.13591713	0.43594345	0.88232208	-0.0072719245	0.436099	0.99451947	0.12697913	0.3684021	0.98033856	-0.20356229	0.42520068	0.91488385	0.087586243	0.43026361	0.89661676	-0.060346634	0.41474066	0.39965027	0.019373211	0.42304898	0.42206537	0.1402776	0.32268542	0.5660545	0.10053079	0.35899268	0.089614616	0.091933006	0.33892853	0.09900396	0.1726653	0.39189447	0.30396252	0.1674064	0.28314935	0.033949123	0.12637091	0.48889008	0.045640526	0.13437904
9556	95.55	0.22472708	0.65476526	-0.092764877	0.20272711	0.65177881	0.10519038	0.12468491	0.69309058	0.1379599	0.0049733286	0.65736243	0.0002911872	0.13221344	0.68396179	-0.13596251	0.43821292	0.8897785	-0.0072963533	0.43652762	1.0018306	0.12717408	0.3697261	0.98686566	-0.20403172	0.42706223	0.92236823	0.087705345	0.43238538	0.90413812	-0.060550156	0.41708884	0.39919925	0.018897234	0.42596976	0.42165778	0.1397347	0.32754202	0.56724554	0.10023438	0.35909036	0.089541084	0.091769699	0.33925616	0.099048096	0.17255408	0.393673	0.3036261	0.16707327	0.28318561	0.034002888	0.12637418	0.48886209	0.045589954	0.13435472
9557	95.56	0.22892645	0.65993384	-0.092428757	0.20727872	0.65701495	0.10549311	0.12936012	0.69798767	0.13895172	0.009728261	0.66237744	0.00068932086	0.13648715	0.68872015	-0.13599243	0.44033261	0.89757941	-0.0072933044	0.43672501	1.0094613	0.12740662	0.37088284	0.99371393	-0.20446349	0.42875998	0.93017566	0.087870232	0.4343349	0.91201166	-0.060707966	0.41923138	0.39878381	0.018456373	0.42871597	0.42130008	0.13921078	0.33229794	0.56843207	0.099908058	0.3591734	0.0894767	0.091621284	0.33955978	0.099086807	0.17245383	0.39531396	0.30330194	0.1667715	0.28321893	0.034078949	0.12639977	0.48883301	0.045543449	0.13433423
